# xmcd CD database file
#
# Track frame offsets:
#	150
#	27532
#	47755
#	71645
#	95555
#	120780
#	140667
#	161712
#	187947
#	208460
#
# Disc length: 3177 seconds
#
# Revision: 0
# Processed by: cddbd v1.5.1PL2 Copyright (c) Steve Scherf et al.
# Submitted via: CDex 1.51
#
DISCID=920c670a
DTITLE=大地真央 - マインダージ
DYEAR=1998
DGENRE=J-Pop
TTITLE0=今宵満月
TTITLE1=リズム・イズム
TTITLE2=女神の毒牙
TTITLE3=Sentimental Love Song
TTITLE4=星の器
TTITLE5=ヒロインの条件
TTITLE6=何だったの
TTITLE7=暗くなるまでこの恋を
TTITLE8=抱擁
TTITLE9=ララバイ
EXTD=YEAR: 1998
EXTT0=
EXTT1=
EXTT2=
EXTT3=
EXTT4=
EXTT5=
EXTT6=
EXTT7=
EXTT8=
EXTT9=
PLAYORDER=
